<svg width="21" height="21" viewBox="0 0 21 21" fill="none" xmlns="http://www.w3.org/2000/svg">
<mask id="path-1-inside-1_440_700" fill="white">
<path d="M0.919922 2.36C0.919922 1.56471 1.56463 0.919998 2.35992 0.919998H18.9199C19.7152 0.919998 20.3599 1.56471 20.3599 2.36V18.92C20.3599 19.7153 19.7152 20.36 18.9199 20.36H2.35992C1.56463 20.36 0.919922 19.7153 0.919922 18.92V2.36Z"/>
</mask>
<path d="M0.919922 2.36C0.919922 1.56471 1.56463 0.919998 2.35992 0.919998H18.9199C19.7152 0.919998 20.3599 1.56471 20.3599 2.36V18.92C20.3599 19.7153 19.7152 20.36 18.9199 20.36H2.35992C1.56463 20.36 0.919922 19.7153 0.919922 18.92V2.36Z" fill="#FF9FC5"/>
<path d="M0.199922 2.36C0.199922 1.16706 1.16699 0.199998 2.35992 0.199998H18.1999C19.3929 0.199998 20.3599 1.16706 20.3599 2.36V2.36C20.3599 1.96235 19.7152 1.64 18.9199 1.64H2.35992C1.96228 1.64 1.63992 1.96235 1.63992 2.36L0.199922 2.36ZM20.3599 20.36H0.919922H20.3599ZM2.35992 20.36C1.16699 20.36 0.199922 19.3929 0.199922 18.2V2.36C0.199922 1.16706 1.16699 0.199998 2.35992 0.199998L2.35992 1.64C1.96228 1.64 1.63992 1.96235 1.63992 2.36V18.92C1.63992 19.7153 1.96228 20.36 2.35992 20.36H2.35992ZM20.3599 0.919998V20.36V0.919998Z" fill="#FFE4EE" mask="url(#path-1-inside-1_440_700)"/>
<path d="M5.36987 5.23999L16.7601 16.76" stroke="black" stroke-width="1.44" stroke-linecap="round"/>
<path d="M16.6302 5.23999L5.24005 16.76" stroke="black" stroke-width="1.44" stroke-linecap="round"/>
</svg>
