<svg width="20" height="21" viewBox="0 0 20 21" fill="none" xmlns="http://www.w3.org/2000/svg">
<mask id="path-1-inside-1_440_694" fill="white">
<path d="M0 2.36C0 1.56471 0.64471 0.919998 1.44 0.919998H18C18.7953 0.919998 19.44 1.56471 19.44 2.36V18.92C19.44 19.7153 18.7953 20.36 18 20.36H1.44C0.64471 20.36 0 19.7153 0 18.92V2.36Z"/>
</mask>
<path d="M0 2.36C0 1.56471 0.64471 0.919998 1.44 0.919998H18C18.7953 0.919998 19.44 1.56471 19.44 2.36V18.92C19.44 19.7153 18.7953 20.36 18 20.36H1.44C0.64471 20.36 0 19.7153 0 18.92V2.36Z" fill="#FF9FC5"/>
<path d="M-1 2.36C-1 1.01242 0.0924252 -0.0800018 1.44 -0.0800018H17C18.3476 -0.0800018 19.44 1.01242 19.44 2.36V2.36C19.44 2.11699 18.7953 1.92 18 1.92H1.44C1.19699 1.92 1 2.11699 1 2.36L-1 2.36ZM19.44 20.36H0H19.44ZM1.44 20.36C0.0924252 20.36 -1 19.2676 -1 17.92V2.36C-1 1.01242 0.0924252 -0.0800018 1.44 -0.0800018L1.44 1.92C1.19699 1.92 1 2.11699 1 2.36V18.92C1 19.7153 1.19699 20.36 1.44 20.36H1.44ZM19.44 0.919998V20.36V0.919998Z" fill="#FFE4EE" mask="url(#path-1-inside-1_440_694)"/>
<path d="M4.31995 16.76H15.8399" stroke="black" stroke-width="1.44" stroke-linecap="round"/>
</svg>
