<svg width="104" height="73" viewBox="0 0 104 73" fill="none" xmlns="http://www.w3.org/2000/svg">
<g filter="url(#filter0_d_320_941)">
<path d="M39.4705 14.8695L96.0052 33.2388C97.6636 33.7776 97.6636 36.1237 96.0052 36.6626L39.4705 55.0318L6.54262 65.7307C4.88425 66.2696 3.50523 64.3715 4.53016 62.9608L24.112 36.0087C24.5704 35.3778 24.5704 34.5235 24.112 33.8926L4.53015 6.94051C3.50523 5.52982 4.88426 3.63176 6.54262 4.17059L39.4705 14.8695Z" fill="white"/>
<path d="M40.0886 12.9674L96.6233 31.3366C100.124 32.4742 100.124 37.4271 96.6233 38.5647L40.0886 56.9339L7.16065 67.6328C3.65966 68.7704 0.748398 64.7633 2.91212 61.7852L22.4086 34.9507L2.91212 8.11608C0.748398 5.13795 3.65968 1.13094 7.16065 2.26848L40.0886 12.9674Z" stroke="black" stroke-width="4"/>
</g>
<defs>
<filter id="filter0_d_320_941" x="0.160156" y="0.0642366" width="103.489" height="72.1728" filterUnits="userSpaceOnUse" color-interpolation-filters="sRGB">
<feFlood flood-opacity="0" result="BackgroundImageFix"/>
<feColorMatrix in="SourceAlpha" type="matrix" values="0 0 0 0 0 0 0 0 0 0 0 0 0 0 0 0 0 0 127 0" result="hardAlpha"/>
<feOffset dx="2.4" dy="2.4"/>
<feComposite in2="hardAlpha" operator="out"/>
<feColorMatrix type="matrix" values="0 0 0 0 0 0 0 0 0 0 0 0 0 0 0 0 0 0 1 0"/>
<feBlend mode="normal" in2="BackgroundImageFix" result="effect1_dropShadow_320_941"/>
<feBlend mode="normal" in="SourceGraphic" in2="effect1_dropShadow_320_941" result="shape"/>
</filter>
</defs>
</svg>
